<?xml version="1.0" encoding="utf-8"?>
<!-- Generator: Adobe Illustrator 23.0.3, SVG Export Plug-In . SVG Version: 6.00 Build 0)  -->
<svg version="1.1" id="Layer_1" xmlns="http://www.w3.org/2000/svg" xmlns:xlink="http://www.w3.org/1999/xlink" x="0px" y="0px"
	 viewBox="0 0 15.6 15.6" style="enable-background:new 0 0 15.6 15.6;" xml:space="preserve">
<style type="text/css">
	.st0{fill:#FFFFFF;}
	.st1{fill-rule:evenodd;clip-rule:evenodd;}
	.st2{fill-rule:evenodd;clip-rule:evenodd;fill:#FFFFFF;}
	.st3{fill:#FFFFFF;stroke:#000000;stroke-miterlimit:10;}
	.st4{fill:none;}
</style>
<path d="M13.7,1v11.7c0,0.6-0.5,1-1,1H7.8v1.9l-1.5-1.5l-1.5,1.5v-1.9H2.9c-0.6,0-1-0.5-1-1V1c0-0.6,0.5-1,1-1h9.8
	C13.2,0,13.6,0.4,13.7,1z"/>
<rect x="4.1" y="1.7" class="st0" width="2.8" height="7.5"/>
<path class="st1" d="M3.9,1v8.8h8.8V1H3.9z M5.8,8.8h-1v-1h1V8.8z M5.8,6.8h-1v-1h1V6.8z M5.8,4.9h-1v-1h1V4.9z M5.8,2.9h-1v-1h1
	V2.9z"/>
<polygon class="st2" points="12.7,12.7 12.7,10.7 2.9,10.7 2.9,12.7 4.9,12.7 4.9,11.7 7.8,11.7 7.8,12.7 "/>
<path class="st3" d="M4.8,12.7"/>
<path d="M4.9,12.7"/>
<g>
	<path class="st4" d="M13.7,1v11.7c0,0.6-0.5,1-1,1H7.8v1.9l-1.5-1.5l-1.5,1.5v-1.9H2.9c-0.6,0-1-0.5-1-1V1c0-0.6,0.5-1,1-1h9.8
		C13.2,0,13.6,0.4,13.7,1z"/>
</g>
</svg>
